<?xml version="1.0" encoding="UTF-8"?>
<svg width="28px" height="28px" viewBox="0 0 28 28" version="1.1" xmlns="http://www.w3.org/2000/svg" xmlns:xlink="http://www.w3.org/1999/xlink">
    <!-- Generator: Sketch 51.3 (57544) - http://www.bohemiancoding.com/sketch -->
    <title>Group</title>
    <desc>Created with Sketch.</desc>
    <defs></defs>
    <g id="Page-1" stroke="none" stroke-width="1" fill="none" fill-rule="evenodd">
        <g id="Desktop" transform="translate(-498.000000, -291.000000)" fill="#E04436">
            <g id="Group" transform="translate(498.000000, 291.000000)">
                <path d="M23.1942392,7.68823834 C23.2125148,8.08364464 23.1450893,8.60861256 22.8564167,8.91423543 C22.595867,9.18277449 22.1139253,9.2908101 21.7868479,9.07705661 C21.48129,8.8752105 21.319098,8.57016706 21.2443739,8.22224544 C21.0281663,7.21767935 20.3732875,6.53623506 19.497596,6.04339681 C19.1995394,5.864815 18.8932574,5.71546569 18.5850059,5.55168844 C18.353448,5.42980434 17.6613809,4.82200622 18.3365337,4.03832067 C18.6319257,3.69616442 19.1261476,3.66464317 19.5562168,3.74996494 C20.7839516,3.98373791 21.8379963,4.94580246 22.5286442,5.93536119 C22.8760535,6.43187886 23.1714165,7.0708216 23.1942392,7.68823834 M23.7536825,4.05031724 C22.5430596,2.81486202 21.0910954,1.83567164 19.4118605,1.10855549 C17.7341738,0.371737159 15.8757999,0.00123269124 13.8671113,2.838694e-06 C11.8067847,-0.00122701386 9.93793749,0.397154112 8.24895787,1.21550711 C6.55055227,2.02001288 5.095355,3.08807149 3.87403116,4.41995625 C2.65584931,5.75061116 1.71625735,7.28104878 1.05912584,8.99701194 C0.383916489,10.7045483 0.0506377456,12.4492536 0.0483609404,14.2423331 C0.0464028879,16.005805 0.368024389,17.7208571 1.01044774,19.3682218 C1.65068536,21.0395004 2.56281905,22.4922751 3.74816937,23.7749202 C4.92919376,25.0562443 6.34513891,26.0741523 7.99500302,26.860848 C9.65219844,27.6188015 11.4839338,27.9980516 13.4969938,27.9999192 C15.5553623,28.0065239 17.4431981,27.6082339 19.1734335,26.8257744 C20.8971116,26.0234095 22.3841386,24.9511147 23.6319644,23.606567 C24.8827046,22.2601973 25.8519406,20.7146371 26.5529234,18.973257 C27.2459829,17.2415335 27.587959,15.4173433 27.5970662,13.5139871 C27.5970662,11.7136651 27.2628768,9.98257933 26.5939969,8.3502917 C25.9081321,6.71832292 24.9748697,5.28458814 23.7536825,4.05031724" id="Fill-69-Copy-2"></path>
            </g>
        </g>
    </g>
</svg>